Coordinates
nRows=4
nColumns=38

# SIMM Motion File Header:
name Coordinates
datacolumns 38
datarows 4
otherdata 1
range 2.25400000000000000000 2.25700000000000010000

Units are S.I. units (second, meters, Newtons, ...)
Angles are in degrees.

endheader
time	pelvis_tilt	pelvis_list	pelvis_rotation	pelvis_tx	pelvis_ty	pelvis_tz	hip_flexion_r	hip_adduction_r	hip_rotation_r	knee_angle_r	ankle_angle_r	subtalar_angle_r	mtp_angle_r	hip_flexion_l	hip_adduction_l	hip_rotation_l	knee_angle_l	ankle_angle_l	subtalar_angle_l	mtp_angle_l	lumbar_extension	lumbar_bending	lumbar_rotation	arm_flex_r	arm_add_r	arm_rot_r	elbow_flex_r	pro_sup_r	wrist_flex_r	wrist_dev_r	arm_flex_l	arm_add_l	arm_rot_l	elbow_flex_l	pro_sup_l	wrist_flex_l	wrist_dev_l
      2.25400000000000000000	     -5.76878154518127850000	      3.38701791737694840000	      5.07531045979312530000	      0.67091222978437404000	      0.96292304922167649000	     -0.33988658074625649000	     36.73276633668659500000	     -3.07962975880037470000	     -4.99123618641959780000	    -91.98616494550033500000	     -2.19131145188571350000	      0.00000000000021156689	     -0.00000000000018860249	      9.08538382935403100000	      5.42220395938843950000	     -4.09771955598529840000	    -33.04946291997929100000	     11.50423187884779700000	     -0.00000000000002998089	     -0.00000000000003535151	     -8.65154288014525900000	     -5.59433842242500120000	    -13.82564251463049500000	    -17.06000295320993800000	    -20.18679500783191100000	      7.31707102805793590000	     60.88747449124233000000	     83.77582815697904600000	     -0.00000000000010580221	     -0.00000000000003606143	     -5.47248871398382790000	    -34.56716184420820800000	     21.52502793570978000000	    103.83229860413446000000	     85.70388573375255700000	     -0.00000000000000168748	     -0.00000000000002799892
      2.25499999999999990000	     -5.75112600190890520000	      3.29501294613228260000	      5.07096465944550450000	      0.67092559713564015000	      0.96352195340541891000	     -0.33988625692325730000	     36.86159106362310900000	     -2.95371493208251400000	     -4.99869487517008700000	    -91.67798886603890200000	     -2.13731499413822900000	      0.00000000000021207234	     -0.00000000000018913459	      8.77920265633350640000	      5.29885141767338210000	     -4.07632097231130520000	    -32.81137724588035800000	     11.22999481890491700000	     -0.00000000000002976169	     -0.00000000000003559448	     -8.67003843611093570000	     -5.46486792731080580000	    -13.92311658974563900000	    -17.15247854375058600000	    -20.28831523322575600000	      7.33466951229269170000	     60.92402658245168800000	     83.79096749934861100000	     -0.00000000000010623370	     -0.00000000000003626265	     -5.34644763573435980000	    -34.52592677408035400000	     21.51121753659368000000	    103.95837790531138000000	     85.77546244985708800000	     -0.00000000000000168872	     -0.00000000000002811249
      2.25599999999999980000	     -5.73443716784553280000	      3.20226757554771390000	      5.06685114739549030000	      0.67094622888428668000	      0.96412741059065310000	     -0.33988562892626600000	     36.98722099244032100000	     -2.82730582800857630000	     -5.00695826891267610000	    -91.36261882050834500000	     -2.08386321180688320000	      0.00000000000021256999	     -0.00000000000018966804	      8.47386988332254810000	      5.17469291700050250000	     -4.05442437477391500000	    -32.57165043639480500000	     10.94830167622672900000	     -0.00000000000002960323	     -0.00000000000003583282	     -8.68645878812991330000	     -5.33441180345988110000	    -14.02004902953563600000	    -17.24609888672441100000	    -20.38983660541924400000	      7.35144311669657300000	     60.96334770981469800000	     83.80517139006944700000	     -0.00000000000010665601	     -0.00000000000003643676	     -5.22381501936761610000	    -34.48470601448600100000	     21.49659700817705900000	    104.08641066601234000000	     85.84282287362141500000	     -0.00000000000000168979	     -0.00000000000002822479
      2.25700000000000010000	     -5.71872292357857330000	      3.10889285982957600000	      5.06295910481946000000	      0.67097403949073686000	      0.96473914864244881000	     -0.33988472423752525000	     37.10968806464425300000	     -2.70053746893187490000	     -5.01594025475989280000	    -91.04016054058986600000	     -2.03102950159765030000	      0.00000000000021306154	     -0.00000000000019020212	      8.16945380908291700000	      5.04986728999165190000	     -4.03202375367464950000	    -32.33036468185221700000	     10.65911162776916800000	     -0.00000000000002941896	     -0.00000000000003611067	     -8.70082244912340740000	     -5.20309703861332990000	    -14.11643445763378000000	    -17.34086334150174500000	    -20.49132586524001500000	      7.36734558976387090000	     61.00537658910971600000	     83.81845346410497700000	     -0.00000000000010706452	     -0.00000000000003661108	     -5.10457935269348530000	    -34.44353671256764200000	     21.48125240891782200000	    104.21639916906915000000	     85.90585479532124700000	     -0.00000000000000168835	     -0.00000000000002833573
